<?xml version="1.0" encoding="iso-8859-1"?>
<!-- Uploaded to: SVG Repo, www.svgrepo.com, Generator: SVG Repo Mixer Tools -->
<svg version="1.1" id="Layer_1" xmlns="http://www.w3.org/2000/svg" xmlns:xlink="http://www.w3.org/1999/xlink" 
	 viewBox="0 0 511.998 511.998" xml:space="preserve">
<polygon style="fill:#F95428;" points="78.043,256.016 50.959,230.735 50.959,298.722 78.043,298.722 "/>
<polyline style="fill:#4A6F93;" points="98.062,341.428 30.94,341.428 30.94,440.346 98.062,440.346 "/>
<path style="fill:#5D9EBA;" d="M289.552,322.847H178.495c-40.222,0-72.829,32.606-72.829,72.829v106.903H362.38V395.676
	C362.381,355.453,329.774,322.847,289.552,322.847z"/>
<path style="fill:#508DA3;" d="M223.368,322.847h-44.873c-40.222,0-72.829,32.606-72.829,72.829v106.903h44.873V395.676
	C150.539,355.453,183.147,322.847,223.368,322.847z"/>
<path style="fill:#F7CBA4;" d="M321.955,330.443l-87.93,86.364l-87.942-86.364c9.762-4.863,20.761-7.595,32.407-7.595h111.058
	C301.194,322.847,312.193,325.578,321.955,330.443z"/>
<path style="fill:#E0B394;" d="M109.884,223.306c-14.602-0.648-26.225-12.694-26.225-27.45c0-15.167,12.294-27.473,27.473-27.473
	c1.366,0,2.708,0.094,4.027,0.294"/>
<path style="fill:#F7CBA4;" d="M358.698,239.824c-1.472,26.496-14.743,51.237-36.599,67.111l-10.975,7.972l-3.309,2.402
	l-34.056,24.753c-23.693,17.216-55.782,17.216-79.487,0l-48.34-35.127c-25.542-18.559-39.355-49.247-36.317-80.677l8.384-86.765
	c0.236-2.496,0.565-4.969,0.954-7.407c9.032-56.077,57.537-97.94,115.062-97.94c30.017,0,57.584,11.399,78.368,30.264
	c20.773,18.865,34.774,45.208,37.659,75.083l8.384,86.765C358.864,230.803,358.958,235.337,358.698,239.824z"/>
<path style="fill:#E0B394;" d="M139.693,243.36c-0.813,13.742,3.662,27.261,12.518,37.801l50.522,62.082
	c2.638,3.144,5.629,5.782,8.867,7.89c-6.076-2.12-11.917-5.158-17.322-9.079l-48.34-35.116
	c-25.542-18.559-39.355-49.247-36.317-80.677l8.373-86.765c5.723-59.174,55.017-104.464,114.285-105.323
	c-36.505,0.883-77.842,35.292-79.997,71.939L139.693,243.36z"/>
<path style="fill:#9691C6;" d="M332.556,298.032c19.218-57.325,16.875-157.432-76.155-151.544
	c-23.823,1.507-42.935-8.714-56.371-19.76c-14.614-12-22.527-24.988-22.527-24.988s-27.932,50.554-61.659,60.022l-0.671,6.912
	h-0.012c-1.319-0.2-2.661-0.294-4.027-0.294c-5.358,0-10.363,1.531-14.59,4.192c-14.873-29.758-8.255-74.388,3.238-96.739
	c21.197-41.216,67.017-20.349,67.017-20.349c0-10.987,5.464-19.501,13.271-26.072C199.665,12.926,234.027,8.71,234.027,8.71
	c126.661-1.967,158.28,94.984,164.144,117.865C423.171,224.185,332.556,298.032,332.556,298.032z"/>
<path style="fill:#7F7DAD;" d="M200.031,126.728c-14.614-12-22.527-24.988-22.527-24.988s-27.932,50.554-61.659,60.022l-0.671,6.912
	h-0.012c-1.319-0.2-2.661-0.294-4.027-0.294c-5.358,0-10.363,1.531-14.59,4.192c-14.873-29.758-8.255-74.388,3.238-96.739
	c21.197-41.216,67.017-20.349,67.017-20.349c0-10.987,5.464-19.501,13.271-26.072C147.899,78.66,200.031,126.728,200.031,126.728z"
	/>
<rect x="357.032" y="414.674" style="fill:#E070B3;" width="70.276" height="87.895"/>
<path style="fill:#4A6F93;" d="M397.064,344.442h-9.788c-6.632,0-12.009,5.377-12.009,12.009v58.227h33.805v-58.227
	C409.073,349.819,403.696,344.442,397.064,344.442z"/>
<rect x="43.148" y="298.717" style="fill:#FCEA81;" width="42.711" height="42.711"/>
<path d="M151.128,494.335h-36.04V392.014c0-19.887,10.165-37.93,27.193-48.268c4.17-2.532,5.497-7.964,2.966-12.133
	s-7.963-5.497-12.133-2.966c-22.348,13.567-35.69,37.257-35.69,63.367v111.152c0,4.878,3.954,8.832,8.832,8.832h44.872
	c4.878,0,8.832-3.954,8.832-8.832C159.96,498.289,156.006,494.335,151.128,494.335z"/>
<path d="M329.458,494.335h-86.013v-73.233l63.301-62.171c3.48-3.419,3.53-9.01,0.113-12.489c-3.417-3.48-9.009-3.53-12.49-0.113
	l-59.757,58.69l-59.757-58.691c-3.48-3.417-9.072-3.367-12.49,0.113c-3.417,3.48-3.367,9.072,0.113,12.489l63.301,62.171v73.233
	h-45.214c-4.878,0-8.832,3.954-8.832,8.832s3.954,8.832,8.832,8.832h148.891c4.878,0,8.832-3.954,8.832-8.832
	S334.336,494.335,329.458,494.335z"/>
<path d="M356.835,362.991c4.049-2.723,5.123-8.21,2.401-12.258c-5.979-8.891-13.979-16.529-23.135-22.088
	c-4.17-2.531-9.602-1.202-12.133,2.966s-1.202,9.601,2.966,12.133c6.983,4.239,13.084,10.064,17.644,16.845
	c1.705,2.535,4.495,3.905,7.336,3.905C353.61,364.495,355.323,364.009,356.835,362.991z"/>
<path d="M75.416,196.444c0,16.339,10.717,30.179,25.646,34.726c-1.395,32.596,13.727,64.215,40.276,83.498l48.34,35.127
	c13.436,9.765,29.179,14.644,44.93,14.644c15.747,0,31.5-4.882,44.94-14.644l48.339-35.126c3.953-2.871,7.717-6.066,11.192-9.497
	c3.901-3.257,35.236-30.281,54.699-73.531c18.983-42.182,29.647-107.966-27.348-181.81c-25.801-33.438-79.03-53.261-132.465-49.339
	c-0.142,0.011-0.285,0.025-0.427,0.042c-2.783,0.342-62.425,8.088-73.294,43.878c-5.013-1.282-11.405-2.42-18.379-2.452
	c-15.305-0.069-36.353,5.151-49.352,30.423c-12.631,24.565-17.925,67.469-6.166,98.13C79.608,177.108,75.416,186.294,75.416,196.444
	z M93.08,196.444c0-8.273,5.422-15.296,12.895-17.725l-3.288,34.041C96.94,209.581,93.08,203.468,93.08,196.444z M325.428,293.801
	c-2.492,2.356-5.15,4.563-7.923,6.577l-48.338,35.126c-20.674,15.014-48.445,15.014-69.106,0.001l-48.342-35.129
	c-22.912-16.641-35.452-44.49-32.728-72.683l5.683-58.849c23.979-9.687,43.963-35.61,54.071-50.796
	c12.141,14.521,37.358,38.015,73.477,38.01c1.746,0,3.526-0.055,5.323-0.17c26.651-1.686,46.669,5.928,59.506,22.631
	C339.137,207.259,336.917,257.929,325.428,293.801z M108.221,80.461c7.167-13.934,17.981-20.751,33.06-20.837
	c12.147-0.099,22.366,4.452,22.442,4.488c2.734,1.245,5.913,1.015,8.44-0.611c2.527-1.625,4.053-4.423,4.053-7.427
	c0-28.99,55.82-37.489,59.306-37.984c47.676-3.427,94.635,13.646,116.924,42.533c41.317,53.532,49.887,108.444,25.475,163.21
	c-8.283,18.58-19.159,34.075-28.684,45.55c1.842-11.915,2.625-23.992,2.257-35.61c-0.85-26.895-7.918-49.722-20.438-66.013
	c-16.641-21.652-41.741-31.575-74.627-29.495c-43.625,2.747-70.542-40.113-70.799-40.531c-1.638-2.685-4.58-4.301-7.726-4.231
	c-3.145,0.066-6.019,1.801-7.544,4.551c-0.263,0.473-26.581,47.446-56.318,55.794c-3.131,0.878-5.48,3.396-6.204,6.504
	c-2.057,0.22-4.062,0.618-6.003,1.169C92.622,134.564,99.021,98.353,108.221,80.461z"/>
<path d="M182.187,198.419c-4.878,0-8.832,3.954-8.832,8.832v14.126c0,4.878,3.954,8.832,8.832,8.832s8.832-3.954,8.832-8.832V207.25
	C191.019,202.373,187.065,198.419,182.187,198.419z"/>
<path d="M260.594,179.219c-3.449,3.449-3.449,9.042,0,12.49c3.449,3.449,9.042,3.449,12.49,0c7.691-7.69,20.204-7.69,27.895,0
	c1.724,1.724,3.985,2.587,6.245,2.587s4.521-0.862,6.245-2.587c3.449-3.449,3.449-9.042,0-12.49
	C298.892,164.642,275.172,164.642,260.594,179.219z"/>
<path d="M208.624,179.219c-14.577-14.579-38.298-14.577-52.875,0c-3.449,3.449-3.449,9.042,0,12.49c3.449,3.449,9.042,3.449,12.49,0
	c7.692-7.69,20.205-7.69,27.895,0c1.724,1.724,3.985,2.587,6.245,2.587s4.521-0.862,6.245-2.587
	C212.073,188.261,212.073,182.668,208.624,179.219z"/>
<path d="M287.032,198.419c-4.878,0-8.832,3.954-8.832,8.832v14.126c0,4.878,3.954,8.832,8.832,8.832s8.832-3.954,8.832-8.832V207.25
	C295.864,202.373,291.91,198.419,287.032,198.419z"/>
<path d="M251.694,272.568c-9.421,9.421-24.751,9.421-34.171,0c-3.449-3.449-9.042-3.449-12.49,0c-3.449,3.449-3.449,9.042,0,12.49
	c8.154,8.154,18.865,12.232,29.575,12.232c10.71,0,21.421-4.077,29.575-12.232c3.449-3.449,3.449-9.042,0-12.49
	C260.736,269.119,255.143,269.119,251.694,272.568z"/>
<path d="M225.374,249.224h18.467c4.878,0,8.832-3.954,8.832-8.832c0-4.878-3.954-8.832-8.832-8.832h-0.402v-18.253
	c0-4.878-3.954-8.832-8.832-8.832s-8.832,3.954-8.832,8.832v18.253h-0.402c-4.878,0-8.832,3.954-8.832,8.832
	C216.542,245.27,220.496,249.224,225.374,249.224z"/>
<path d="M427.897,406.435h-9.403V357.04c0-11.492-9.349-20.841-20.841-20.841h-9.788c-11.492,0-20.841,9.349-20.841,20.841v49.395
	h-9.403c-4.878,0-8.832,3.954-8.832,8.832v87.9c0,4.878,3.954,8.832,8.832,8.832h70.276c4.878,0,8.832-3.954,8.832-8.832v-38.68
	c0-4.878-3.954-8.832-8.832-8.832s-8.832,3.954-8.832,8.832v29.848h-52.612v-70.236h9.403h33.805h9.403v10.948
	c0,4.878,3.954,8.832,8.832,8.832s8.832-3.954,8.832-8.832v-19.78C436.729,410.389,432.774,406.435,427.897,406.435z
	 M384.689,406.435V357.04c0-1.752,1.425-3.177,3.177-3.177h9.788c1.752,0,3.177,1.425,3.177,3.177v49.395H384.689z"/>
<path d="M80.987,432.103H40.361v-81.254h58.291c4.878,0,8.832-3.954,8.832-8.832s-3.954-8.832-8.832-8.832h-3.376v-33.875
	c0-4.531-3.415-8.262-7.811-8.768v-33.938c0-2.448-1.016-4.786-2.805-6.457l-27.085-25.28c-2.573-2.401-6.321-3.045-9.546-1.644
	c-3.225,1.401-5.312,4.584-5.312,8.101v59.219c-4.396,0.506-7.811,4.237-7.811,8.768v33.875H31.53c-4.878,0-8.832,3.954-8.832,8.832
	v98.917c0,4.878,3.954,8.832,8.832,8.832h49.459c4.878,0,8.832-3.954,8.832-8.832S85.865,432.103,80.987,432.103z M60.38,251.649
	l9.421,8.793v30.037H60.38V251.649z M52.57,308.143h25.043v25.043H52.57V308.143z"/>
<path d="M464.881,63.273c2.26,0,4.521-0.862,6.245-2.587l15.587-15.587c3.449-3.449,3.449-9.042,0-12.489
	c-3.449-3.45-9.042-3.449-12.489,0l-15.587,15.587c-3.449,3.449-3.449,9.042,0,12.489C460.36,62.412,462.621,63.273,464.881,63.273z
	"/>
<path d="M427.775,79.057l-15.587,15.587c-3.449,3.449-3.449,9.042,0,12.49c1.724,1.725,3.985,2.587,6.245,2.587
	s4.521-0.862,6.245-2.587l15.587-15.587c3.449-3.449,3.449-9.042,0-12.49C436.816,75.608,431.223,75.609,427.775,79.057z"/>
<path d="M471.127,79.057c-3.449-3.449-9.042-3.449-12.489,0c-3.449,3.449-3.449,9.04,0,12.49l15.587,15.587
	c1.724,1.725,3.985,2.587,6.245,2.587s4.521-0.862,6.245-2.587c3.449-3.449,3.449-9.04,0-12.49L471.127,79.057z"/>
<path d="M424.678,32.609c-3.448-3.45-9.04-3.449-12.489,0c-3.449,3.449-3.449,9.04,0,12.489l15.587,15.587
	c1.724,1.725,3.985,2.587,6.245,2.587s4.521-0.862,6.245-2.587c3.449-3.449,3.449-9.04,0-12.489L424.678,32.609z"/>
<circle cx="265.451" cy="432.927" r="8.832"/>
</svg>